<svg xmlns="http://www.w3.org/2000/svg" viewBox="0 0 100 100" width="100" height="100">
  <defs>
    <linearGradient id="iconGradient" x1="0%" y1="0%" x2="100%" y2="100%">
      <stop offset="0%" style="stop-color:#2d5d2a;stop-opacity:1" />
      <stop offset="100%" style="stop-color:#1e401c;stop-opacity:1" />
    </linearGradient>
  </defs>
  
  <!-- Background -->
  <rect x="5" y="5" width="90" height="90" rx="20" fill="url(#iconGradient)"/>
  
  <!-- Letter A -->
  <path d="M15 75 L23 30 L28 30 L36 75 L31 75 L28 62 L21 62 L18 75 Z" fill="white"/>
  <path d="M22 55 L28 55 L25 42 Z" fill="url(#iconGradient)"/>
  
  <!-- Letter J -->
  <path d="M38 30 L43 30 L43 62 Q43 72 35 72 Q30 72 29 67 L33 64 Q34 67 35 67 Q38 67 38 62 Z" fill="white"/>

  <!-- Letter F -->
  <path d="M48 30 L64 30 L64 35 L54 35 L54 48 L62 48 L62 53 L54 53 L54 75 L48 75 Z" fill="white"/>
  
  <!-- Cart dot -->
  <circle cx="78" cy="55" r="5" fill="#7cb342"/>
</svg>